<svg version="1" xmlns="http://www.w3.org/2000/svg" width="346.667" height="346.667" viewBox="0 0 260.000000 260.000000"><path d="M109.1 15.2c-36.7 9.5-58 35.6-60.8 74.3l-.5 8 34.8-.1c19.2-.1 35.2-.2 35.6-.3.4 0 .7-18.9.7-41.9-.1-33.9-.3-41.9-1.4-41.9-.7 0-4.5.9-8.4 1.9zM143.8 14.9c-.3 1.3-.2 74.2.1 80.6.1 2 .7 2 33.9 2l33.7-.1V91c.1-8.4-2.9-22.6-6.6-31.5-8.9-21.5-26.8-36.4-52.6-43.9-7.2-2.1-8.2-2.1-8.5-.7zM127.9 29.7c-.8.2-2.3 1.7-3.2 3.2-1.4 2.5-1.7 5.8-1.7 22 0 11.8.4 19.9 1.1 21.4 1.1 2.5 4.7 4.7 7.4 4.7s6.3-2.2 7.4-4.7c1.5-3.2 1.5-39.4 0-42.6-1.7-3.7-6.1-5.3-11-4zM48.2 154.2c.3 36.5.4 37.4 2.7 43.3 9 22.8 31.9 39.2 68.2 49 9.6 2.5 13.9 2.5 24.3-.6 35.6-10.3 56.8-25.9 65.7-48.4 2.3-5.9 2.4-6.8 2.7-43.3l.3-37.2H47.9l.3 37.2z"/></svg>